<mxfile host="app.diagrams.net" modified="2020-08-10T18:10:07.620Z" agent="5.0 (Windows NT 10.0; Win64; x64) AppleWebKit/537.36 (KHTML, like Gecko) Chrome/84.0.4147.105 Safari/537.36" etag="0Pi4Rcmw7visoafuGqiz" version="13.6.0" type="github">
  <diagram id="xcsMAvzdJSJlNxlvGaXI" name="Page-1">
    <mxGraphModel dx="2946" dy="1450" grid="1" gridSize="10" guides="1" tooltips="1" connect="1" arrows="1" fold="1" page="1" pageScale="1" pageWidth="850" pageHeight="1100" math="0" shadow="0">
      <root>
        <mxCell id="0" />
        <mxCell id="1" parent="0" />
        <mxCell id="8H0wxOGDU9DruMlUR2u8-2" value="mydomain" style="text;html=1;strokeColor=none;fillColor=none;align=center;verticalAlign=middle;whiteSpace=wrap;rounded=0;fontStyle=1;fontFamily=Verdana;fontSize=20;fontColor=#2027E6;" parent="1" vertex="1">
          <mxGeometry x="340" y="70" width="160" height="60" as="geometry" />
        </mxCell>
        <mxCell id="8H0wxOGDU9DruMlUR2u8-4" value="`" style="strokeWidth=2;html=1;shape=mxgraph.flowchart.annotation_2;align=left;labelPosition=right;pointerEvents=1;fontFamily=Verdana;fontSize=20;fontColor=#2027E6;direction=south;" parent="1" vertex="1">
          <mxGeometry x="140" y="110" width="590" height="100" as="geometry" />
        </mxCell>
        <mxCell id="8H0wxOGDU9DruMlUR2u8-10" value="&lt;font color=&quot;#000000&quot;&gt;Pay-as-you-Go&lt;/font&gt;" style="rounded=0;whiteSpace=wrap;html=1;fontFamily=Verdana;fontSize=20;fontColor=#2027E6;" parent="1" vertex="1">
          <mxGeometry x="30" y="210" width="210" height="60" as="geometry" />
        </mxCell>
        <mxCell id="8H0wxOGDU9DruMlUR2u8-12" value="" style="line;strokeWidth=2;direction=south;html=1;fontFamily=Verdana;fontSize=20;fontColor=#2027E6;verticalAlign=top;horizontal=1;" parent="1" vertex="1">
          <mxGeometry x="140" y="272" width="10" height="70" as="geometry" />
        </mxCell>
        <mxCell id="8H0wxOGDU9DruMlUR2u8-13" value="Sign-up details and Payment-link" style="rounded=0;whiteSpace=wrap;html=1;fontFamily=Verdana;fontSize=20;" parent="1" vertex="1">
          <mxGeometry x="30" y="340" width="210" height="70" as="geometry" />
        </mxCell>
        <mxCell id="8H0wxOGDU9DruMlUR2u8-15" value="" style="line;strokeWidth=2;direction=south;html=1;fontFamily=Verdana;fontSize=20;fontColor=#000000;" parent="1" vertex="1">
          <mxGeometry x="140" y="410" width="10" height="70" as="geometry" />
        </mxCell>
        <mxCell id="8H0wxOGDU9DruMlUR2u8-16" value="Choose Template and Design Card" style="rounded=0;whiteSpace=wrap;html=1;fontFamily=Verdana;fontSize=20;" parent="1" vertex="1">
          <mxGeometry x="30" y="470" width="210" height="70" as="geometry" />
        </mxCell>
        <mxCell id="8H0wxOGDU9DruMlUR2u8-43" value="" style="edgeStyle=orthogonalEdgeStyle;rounded=0;orthogonalLoop=1;jettySize=auto;html=1;fontFamily=Verdana;fontSize=20;fontColor=#000000;" parent="1" source="8H0wxOGDU9DruMlUR2u8-17" target="8H0wxOGDU9DruMlUR2u8-18" edge="1">
          <mxGeometry relative="1" as="geometry" />
        </mxCell>
        <mxCell id="8H0wxOGDU9DruMlUR2u8-17" value="" style="line;strokeWidth=2;direction=north;html=1;fontFamily=Verdana;fontSize=20;fontColor=#000000;" parent="1" vertex="1">
          <mxGeometry x="140" y="540" width="10" height="70" as="geometry" />
        </mxCell>
        <mxCell id="8H0wxOGDU9DruMlUR2u8-18" value="Generate E-card" style="rounded=0;whiteSpace=wrap;html=1;fontFamily=Verdana;fontSize=20;" parent="1" vertex="1">
          <mxGeometry x="30" y="610" width="210" height="70" as="geometry" />
        </mxCell>
        <mxCell id="8H0wxOGDU9DruMlUR2u8-19" value="After Payment&amp;nbsp;" style="text;html=1;strokeColor=none;fillColor=none;align=center;verticalAlign=middle;whiteSpace=wrap;rounded=0;fontFamily=Verdana;fontSize=20;fontColor=#6666FF;" parent="1" vertex="1">
          <mxGeometry x="80" y="430" width="40" height="20" as="geometry" />
        </mxCell>
        <mxCell id="8H0wxOGDU9DruMlUR2u8-23" value="&lt;font color=&quot;#000000&quot;&gt;Enterprise-Model&lt;/font&gt;" style="rounded=0;whiteSpace=wrap;html=1;fontFamily=Verdana;fontSize=20;fontColor=#2027E6;" parent="1" vertex="1">
          <mxGeometry x="620" y="210" width="210" height="60" as="geometry" />
        </mxCell>
        <mxCell id="8H0wxOGDU9DruMlUR2u8-26" value="" style="line;strokeWidth=2;direction=south;html=1;fontFamily=Verdana;fontSize=20;fontColor=#2027E6;verticalAlign=bottom;horizontal=1;" parent="1" vertex="1">
          <mxGeometry x="730" y="269" width="10" height="70" as="geometry" />
        </mxCell>
        <mxCell id="8H0wxOGDU9DruMlUR2u8-27" value="Sign-up Details" style="rounded=0;whiteSpace=wrap;html=1;fontFamily=Verdana;fontSize=20;" parent="1" vertex="1">
          <mxGeometry x="630" y="339" width="200" height="31" as="geometry" />
        </mxCell>
        <mxCell id="8H0wxOGDU9DruMlUR2u8-28" value="" style="strokeWidth=2;html=1;shape=mxgraph.flowchart.annotation_2;align=left;labelPosition=right;pointerEvents=1;fontFamily=Verdana;fontSize=20;fontColor=#6666FF;direction=south;" parent="1" vertex="1">
          <mxGeometry x="528.75" y="370" width="412.5" height="95" as="geometry" />
        </mxCell>
        <mxCell id="8H0wxOGDU9DruMlUR2u8-30" value="&lt;font color=&quot;#000000&quot;&gt;1-25 Cards&lt;/font&gt;" style="rounded=1;whiteSpace=wrap;html=1;fontFamily=Verdana;fontSize=20;fontColor=#6666FF;" parent="1" vertex="1">
          <mxGeometry x="470" y="465" width="120" height="60" as="geometry" />
        </mxCell>
        <mxCell id="8H0wxOGDU9DruMlUR2u8-31" value="25+ Cards" style="rounded=1;whiteSpace=wrap;html=1;fontFamily=Verdana;fontSize=20;labelBackgroundColor=#ffffff;" parent="1" vertex="1">
          <mxGeometry x="890" y="465" width="120" height="60" as="geometry" />
        </mxCell>
        <mxCell id="8H0wxOGDU9DruMlUR2u8-32" value="Trial Account*&lt;br&gt;(50 cards/ 7days)&amp;nbsp;" style="rounded=0;whiteSpace=wrap;html=1;labelBackgroundColor=#ffffff;fontFamily=Verdana;fontSize=20;fontColor=#000000;" parent="1" vertex="1">
          <mxGeometry x="452" y="600" width="160" height="80" as="geometry" />
        </mxCell>
        <mxCell id="8H0wxOGDU9DruMlUR2u8-34" value="Trial Account*&lt;br&gt;(50 cards/ 7days)&amp;nbsp;" style="rounded=0;whiteSpace=wrap;html=1;labelBackgroundColor=#ffffff;fontFamily=Verdana;fontSize=20;fontColor=#000000;" parent="1" vertex="1">
          <mxGeometry x="880" y="600" width="160" height="80" as="geometry" />
        </mxCell>
        <mxCell id="8H0wxOGDU9DruMlUR2u8-44" value="" style="line;strokeWidth=2;direction=north;html=1;fontFamily=Verdana;fontSize=20;fontColor=#000000;" parent="1" vertex="1">
          <mxGeometry x="525" y="525" width="10" height="75" as="geometry" />
        </mxCell>
        <mxCell id="8H0wxOGDU9DruMlUR2u8-45" value="" style="line;strokeWidth=2;direction=north;html=1;fontFamily=Verdana;fontSize=20;fontColor=#000000;" parent="1" vertex="1">
          <mxGeometry x="955" y="525" width="10" height="75" as="geometry" />
        </mxCell>
        <mxCell id="8H0wxOGDU9DruMlUR2u8-46" value="" style="strokeWidth=2;html=1;shape=mxgraph.flowchart.annotation_2;align=left;labelPosition=right;pointerEvents=1;labelBackgroundColor=#ffffff;fontFamily=Verdana;fontSize=20;fontColor=#000000;direction=north;" parent="1" vertex="1">
          <mxGeometry x="540" y="680" width="440" height="120" as="geometry" />
        </mxCell>
        <mxCell id="8H0wxOGDU9DruMlUR2u8-47" value="&lt;font style=&quot;font-size: 15px&quot;&gt;Back Office Support&lt;br&gt;(Custom BrandingTemplates,Logos&lt;/font&gt;)" style="rounded=1;whiteSpace=wrap;html=1;labelBackgroundColor=#ffffff;fontFamily=Verdana;fontSize=20;fontColor=#000000;" parent="1" vertex="1">
          <mxGeometry x="640" y="790" width="260" height="90" as="geometry" />
        </mxCell>
        <mxCell id="8H0wxOGDU9DruMlUR2u8-48" value="After Payment" style="text;html=1;strokeColor=none;fillColor=none;align=center;verticalAlign=middle;whiteSpace=wrap;rounded=0;labelBackgroundColor=#ffffff;fontFamily=Verdana;fontSize=20;fontColor=#000000;" parent="1" vertex="1">
          <mxGeometry x="550" y="710" width="100" height="10" as="geometry" />
        </mxCell>
        <mxCell id="8H0wxOGDU9DruMlUR2u8-49" value="After Payment" style="text;html=1;strokeColor=none;fillColor=none;align=center;verticalAlign=middle;whiteSpace=wrap;rounded=0;labelBackgroundColor=#ffffff;fontFamily=Verdana;fontSize=20;fontColor=#000000;" parent="1" vertex="1">
          <mxGeometry x="870" y="710" width="100" as="geometry" />
        </mxCell>
        <mxCell id="-vELNisRbTaqO_v0fp9Y-1" value="" style="line;strokeWidth=2;direction=north;html=1;fontFamily=Verdana;fontSize=20;fontColor=#000000;" vertex="1" parent="1">
          <mxGeometry x="765" y="880" width="10" height="70" as="geometry" />
        </mxCell>
        <mxCell id="-vELNisRbTaqO_v0fp9Y-2" value="Generate E-card" style="rounded=0;whiteSpace=wrap;html=1;fontFamily=Verdana;fontSize=20;" vertex="1" parent="1">
          <mxGeometry x="660" y="950" width="210" height="70" as="geometry" />
        </mxCell>
      </root>
    </mxGraphModel>
  </diagram>
</mxfile>
